# xmcd
#
# Track frame offsets: 
#        150
#        14065
#        27392
#        41327
#        55553
#        68610
#        82725
#        95461
#        108267
#        120223
#        132318
#        144427
#        157664
#        169800
#        181282
#        193502
#        206753
#        220157
#        235498
#        249795
#        263018
#        275323
#        288059
#        299818
#        312527
#
# Disc length: 4329 seconds
#
# Revision: 0
# Processed by: cddbd v1.5.2PL0 Copyright (c) Steve Scherf et al.
# Submitted via: ExactAudioCopy v0.99pb4
#
DISCID=5910e719
DTITLE=Various Artist - Big Town Playboys - CD1
DYEAR=2006
DGENRE=Blues
TTITLE0=Robert Nighthawk - Black Angel Blues
TTITLE1=Little Johnny Jones - Big Town Playboy
TTITLE2=Big Bill Broonzy - I Love My Whiskey
TTITLE3=St Louise Jimmy - Shame On You Baby
TTITLE4=Sunnyland Slim - Everytime I get to Drinkin'
TTITLE5=Muddy Waters - Rollin Stone
TTITLE6=Jimmy Rogers - That's Alright
TTITLE7=Memphis Slim - Train Time
TTITLE8=Robert JR Lockwood - I'm Gonna Dig Myself a Hole
TTITLE9=Robert JR Lockwood - Dust My Broom
TTITLE10=Muddy Waters - Long Distance Call
TTITLE11=Jimmy Rogers - The World's in a Tangle
TTITLE12=Eddie Boyd - Five Long years
TTITLE13=Eddie Boyd - Bluecoat Man
TTITLE14=Howlin' Wolf - How Many More Years
TTITLE15=Howlin' Wolf - Moanin' at Midnight
TTITLE16=Muddy Waters - She Moves Me
TTITLE17=Floyd Jones - Dark Road
TTITLE18=Homesick James - Farmer's Blues
TTITLE19=Homesick James - Lonesome Old Train
TTITLE20=Little Water - Juke
TTITLE21=Little Walter - Off The Wall
TTITLE22=Willie Mabon - I'm Mad
TTITLE23=Jimmy Reed - High And Lonesome
TTITLE24=Willie Nix - Just Can't Say
EXTD=
EXTT0=
EXTT1=
EXTT2=
EXTT3=
EXTT4=
EXTT5=
EXTT6=
EXTT7=
EXTT8=
EXTT9=
EXTT10=
EXTT11=
EXTT12=
EXTT13=
EXTT14=
EXTT15=
EXTT16=
EXTT17=
EXTT18=
EXTT19=
EXTT20=
EXTT21=
EXTT22=
EXTT23=
EXTT24=
PLAYORDER=
